<svg xmlns="http://www.w3.org/2000/svg" viewBox="0 0 331.387 331.387"><path d="M306.605 25.849H24.775C11.112 25.849 0 36.967 0 50.631v186.224c0 13.67 11.112 24.775 24.775 24.775h111.39c-.122 8.297-1.009 19.538-4.531 27.443H112.47a8.233 8.233 0 0 0-8.233 8.233 8.225 8.225 0 0 0 8.233 8.233h106.448a8.225 8.225 0 0 0 8.233-8.233 8.233 8.233 0 0 0-8.233-8.233h-19.171c-3.515-7.899-4.415-19.146-4.531-27.443h111.396c13.663 0 24.775-11.112 24.775-24.775V50.631c-.007-13.664-11.119-24.782-24.782-24.782zm11.922 211.006c0 6.575-5.347 11.922-11.922 11.922H24.775c-6.575 0-11.922-5.347-11.922-11.922V220.71h305.68v16.144h-.006zM12.854 207.863V50.631c0-6.575 5.347-11.928 11.922-11.928h281.83c6.575 0 11.922 5.354 11.922 11.928v157.226H12.854v.006z"/></svg>