<svg height="512pt" viewBox="0 0 512 512" width="512pt" xmlns="http://www.w3.org/2000/svg"><path d="M510.855 266.945a14.994 14.994 0 0 0-13.859-9.257h-65.332V55.167C431.664 24.746 406.918 0 376.5 0H135.496c-30.418 0-55.164 24.746-55.164 55.168v202.52H15a15.006 15.006 0 0 0-13.86 9.261 15.006 15.006 0 0 0 3.255 16.348l212.593 212.598C227.375 506.28 241.23 512 255.996 512c14.77 0 28.625-5.723 39.008-16.11l212.601-212.597a14.997 14.997 0 0 0 3.25-16.348zM165.113 133.293c12.547-12.55 32.89-12.55 45.442 0 12.547 12.547 12.547 32.89 0 45.441-12.551 12.551-32.895 12.547-45.442 0-12.55-12.55-12.55-32.894 0-45.441zm56.801 170.41c-12.547 12.55-32.894 12.55-45.441 0-12.551-12.547-12.551-32.894 0-45.441l113.609-113.61c12.547-12.55 32.895-12.547 45.441 0 12.547 12.547 12.551 32.895 0 45.446zm124.973 11.36c-12.551 12.55-32.895 12.55-45.442 0-12.55-12.547-12.55-32.895 0-45.442 12.547-12.547 32.89-12.547 45.442 0s12.547 32.895 0 45.441zm0 0"/></svg>