<svg height="640" viewBox="0 0 480.648 480" width="640" xmlns="http://www.w3.org/2000/svg"><path d="M404.77 349.012a89.264 89.264 0 0 0 14.007-20.688H312.32l-32 32c31.239 31.239 93.207 19.93 124.45-11.312zm0 0" fill="#a4e276"/><path d="M312.32 221.867a89.264 89.264 0 0 0-20.687 14.008c-31.242 31.242-42.512 93.25-11.313 124.45l32-32zm0 0" fill="#7ed63e"/><path d="M441.969 272.324c17.39-50.031 30.687-104.336 30.687-104.336L368.32 272.324zm0 0" fill="#a4e276"/><path d="M368.32 272.324v-73.648a422.09 422.09 0 0 0-56 23.199v106.45zm104.336-104.336s-54.304 13.297-104.336 30.688v73.648zm0 0" fill="#7ed63e"/><path d="M312.32 328.324h106.457a422.09 422.09 0 0 0 23.2-56H368.32zm0 0" fill="#a4e276"/><path d="M112.32 272.324L7.984 167.988s13.297 54.305 30.688 104.336zm0 0" fill="#7ed63e"/><path d="M200.32 360.324c31.239-31.238 19.93-93.207-11.312-124.449a89.264 89.264 0 0 0-20.688-14.008v106.457zm0 0" fill="#91dc5a"/><path d="M112.32 272.324H38.672a422.09 422.09 0 0 0 23.2 56H168.32zm-50.457 56a89.264 89.264 0 0 0 14.008 20.688c31.242 31.242 93.25 42.55 124.45 11.312l-32-32zm0 0" fill="#7ed63e"/><path d="M168.32 328.324V221.867a421.567 421.567 0 0 0-56-23.199v73.656zm-56-129.648C62.29 181.286 7.984 167.988 7.984 167.988L112.32 272.324zm0 0" fill="#91dc5a"/><path d="M480.648 167.941a7.865 7.865 0 0 0-.52-2.648 5.463 5.463 0 0 0-.257-.602 7.775 7.775 0 0 0-1.598-2.359 8.155 8.155 0 0 0-2.402-1.602l-.582-.246a8.082 8.082 0 0 0-2.68-.52h-.152a8.244 8.244 0 0 0-1.777.208c-3.672.894-56.215 13.855-105.29 31-.124.047-.253.082-.382.137a439.687 439.687 0 0 0-55.617 23.062 9.213 9.213 0 0 0-.758.387 97.266 97.266 0 0 0-22.738 15.414c-32.153 32.152-44.887 93.488-16.575 129.71l-11.304 11.305a88.072 88.072 0 0 0-17.696 25.739 88.088 88.088 0 0 0-17.777-25.692l-11.305-11.3c28.313-36.227 15.578-97.563-16.574-129.715a97.047 97.047 0 0 0-22.727-15.407 7.97 7.97 0 0 0-.8-.39 438.659 438.659 0 0 0-55.617-23.067c-.13-.054-.254-.085-.391-.136-49.031-17.145-101.578-30.094-105.207-31a7.955 7.955 0 0 0-1.77-.2h-.16a8 8 0 0 0-3.258.77 8.05 8.05 0 0 0-2.398 1.598 7.8 7.8 0 0 0-1.559 2.36 5.804 5.804 0 0 0-.257.6 7.884 7.884 0 0 0-.52 2.65v.237a7.66 7.66 0 0 0 .184 1.715c.906 3.672 13.863 56.23 31.007 105.305.047.11.075.23.13.344a438.342 438.342 0 0 0 23.077 55.656c.106.234.223.465.356.687a97.138 97.138 0 0 0 15.43 22.782 117.402 117.402 0 0 0 80.113 32.242 79.743 79.743 0 0 0 49.664-15.688l11.27 11.27a71.564 71.564 0 0 1 21.09 50.914v38.863a8 8 0 0 0 16 0v-38.863a71.56 71.56 0 0 1 21.085-50.914l11.274-11.27a79.743 79.743 0 0 0 49.664 15.688 117.481 117.481 0 0 0 80.09-32.297 97.32 97.32 0 0 0 15.43-22.785c.128-.223.25-.45.35-.688a438.671 438.671 0 0 0 23.083-55.672c.055-.12.078-.238.129-.359 17.14-49.062 30.101-101.602 31.008-105.297a8.136 8.136 0 0 0 .183-1.71c.008-.055.031-.137.031-.216zm-280.8 180.582l-23.528-23.511v-89.063a51.898 51.898 0 0 1 7.032 5.598c26.265 26.258 37.863 77.32 16.48 106.976zM50.062 280.324h58.946l40 40H66.77a404.906 404.906 0 0 1-16.708-40zM34.488 183.18c20.574 5.64 45.742 13.062 69.832 21.265v48.567zm58.52 81.144H44.44c-8.203-24.09-15.632-49.258-21.265-69.832zm27.312 4.688v-58.946a404.906 404.906 0 0 1 40 16.707v82.239zm-38.8 74.343a53.014 53.014 0 0 1-5.598-7.03h89.086l23.512 23.51c-29.649 21.392-80.727 9.794-107-16.48zm354.687-79.03h-48.574l69.832-69.833c-5.633 20.574-13.059 45.742-21.258 69.832zm-22.336 56h-82.238l40-40h58.941a400.377 400.377 0 0 1-16.703 40zm-53.55-51.313l-40 40v-82.239a404.513 404.513 0 0 1 40-16.707zm16-64.567c24.085-8.203 49.253-15.625 69.831-21.265l-69.832 69.832zm-79.032 37.086a51.596 51.596 0 0 1 7.031-5.597v89.078l-23.511 23.511c-21.383-29.656-9.786-80.718 16.48-106.992zm-5.168 118.305l23.512-23.512h89.07a53.333 53.333 0 0 1-5.598 7.031c-26.265 26.266-77.32 37.88-106.984 16.48zM168.32 128.324h-48a8 8 0 0 1-8-8v-40h40a8 8 0 0 0 0-16h-40v-40a8 8 0 0 1 8-8h48a8 8 0 0 0 0-16h-48c-13.254 0-24 10.746-24 24v96c0 13.254 10.746 24 24 24h48a8 8 0 0 0 0-16zm200 16h-32c-17.672 0-32-14.328-32-32v-80c0-17.672 14.328-32 32-32h32c17.672 0 32 14.328 32 32v80c0 17.672-14.328 32-32 32zm-32-128c-8.836 0-16 7.164-16 16v80c0 8.836 7.164 16 16 16h32c8.836 0 16-7.164 16-16v-80c0-8.836-7.164-16-16-16zm-80 128h-32c-17.672 0-32-14.328-32-32v-80c0-17.672 14.328-32 32-32h32c17.672 0 32 14.328 32 32a8 8 0 0 1-16 0c0-8.836-7.164-16-16-16h-32c-8.836 0-16 7.164-16 16v80c0 8.836 7.164 16 16 16h32c8.836 0 16-7.164 16-16a8 8 0 0 1 16 0c0 17.672-14.328 32-32 32zm0 0" fill="#00665a"/></svg>