<svg xmlns="http://www.w3.org/2000/svg" viewBox="0 0 488.75 488.75"><path d="M215.125 402.275h-37.8c-7.7 0-11.6 9.3-6.3 14.8l67.1 69c3.4 3.5 9.1 3.5 12.5 0l67.1-69c5.4-5.5 1.5-14.8-6.3-14.8h-37.8v-128.7h128.7v37.8c0 7.7 9.3 11.6 14.8 6.3l69-67.1c3.5-3.4 3.5-9.1 0-12.5l-69-67.1c-5.5-5.4-14.8-1.5-14.8 6.3v37.8h-128.8v-128.6h37.8c7.7 0 11.6-9.3 6.3-14.8l-67.1-69c-3.4-3.5-9.1-3.5-12.5 0l-67.1 69c-5.4 5.5-1.5 14.8 6.3 14.8h37.8v128.7h-128.6v-37.8c0-7.7-9.3-11.6-14.8-6.3l-69 67.1c-3.5 3.4-3.5 9.1 0 12.5l69 67.1c5.5 5.4 14.8 1.5 14.8-6.3v-37.8h128.7v128.6z"/></svg>