<svg xmlns="http://www.w3.org/2000/svg" viewBox="0 0 512 512"><circle cx="256" cy="256" r="246" fill="#f5b955"/><g fill="#a5dc69"><path d="M120.531 119.941l-.295.295"/><circle cx="256" cy="256" r="192"/></g><path d="M256 448c53.702 0 102.245-22.057 137.09-57.594a108.804 108.804 0 0 0-6.388-12.978l-26.135-45.268c-46.513-80.563-162.797-80.563-209.31 0l-26.135 45.268a108.91 108.91 0 0 0-6.334 12.853C153.641 425.892 202.235 448 256 448zm6.029-238.675c-4.311 16.09 5.24 32.633 21.33 36.944s32.633-5.24 36.944-21.33c.076-.283.146-.566.214-.85 2.696-10.913 1.039-22.125-2.023-31.795-5.256-16.596-25.946-22.108-38.738-10.3-7.416 6.846-14.371 15.719-17.485 26.484-.084.281-.165.563-.242.847zm89.682 31.018c-8.323 14.416-3.383 32.854 11.033 41.177s32.854 3.383 41.177-11.033c.146-.254.288-.509.426-.765 5.425-9.837 6.726-21.088 6.27-31.214-.781-17.379-19.327-28.051-34.728-19.961-8.929 4.69-17.937 11.456-23.727 21.041-.153.249-.304.5-.451.755zm-248.585 27.592c3.173 11.842 15.348 18.871 27.19 15.698s18.872-15.348 15.698-27.19a21.02 21.02 0 0 0-.177-.62c-2.298-7.948-7.479-14.485-12.99-19.521-9.458-8.644-24.673-4.543-28.481 7.69-2.208 7.093-3.375 15.308-1.399 23.315.051.21.103.419.159.628zm69.206-43.952c0 14.742 11.954 26.695 26.696 26.695s26.695-11.954 26.695-26.695c0-.259-.005-.518-.012-.775-.195-9.946-4.179-19.151-9.012-26.716-8.295-12.983-27.244-12.956-35.474.068-4.772 7.551-8.684 16.729-8.881 26.644-.007.259-.012.519-.012.779z" fill="#fff"/><path d="M471.702 118.072c-2.979-4.65-9.166-6.004-13.814-3.025-4.65 2.979-6.005 9.165-3.025 13.814C479.158 166.782 492 210.745 492 256c0 130.131-105.869 236-236 236S20 386.131 20 256 125.869 20 256 20c43.274 0 85.589 11.813 122.369 34.161 4.72 2.869 10.871 1.367 13.739-3.353s1.367-10.871-3.353-13.739C348.844 12.818 302.938 0 256 0 187.62 0 123.333 26.628 74.981 74.981 26.628 123.333 0 187.62 0 256s26.628 132.667 74.981 181.02C123.333 485.371 187.62 512 256 512s132.667-26.629 181.019-74.98C485.372 388.667 512 324.38 512 256c0-49.087-13.935-96.781-40.298-137.928z"/><path d="M423.001 89.248c1.953 1.953 4.512 2.929 7.071 2.929s5.119-.976 7.071-2.929c3.905-3.905 3.905-10.237 0-14.143l-.123-.123c-3.905-3.905-10.237-3.905-14.143 0-3.905 3.905-3.905 10.237 0 14.143l.124.123zm-279.98-.742c-4.576 3.093-5.777 9.31-2.684 13.885 3.094 4.575 9.31 5.777 13.885 2.684 71.991-48.669 168.918-39.321 230.472 22.231 67.123 67.124 70.741 174.057 10.88 245.488l-.211-.365-26.135-45.268c-23.651-40.966-66.013-65.423-113.315-65.423s-89.664 24.457-113.315 65.423l-26.135 45.268-.136.236c-50.341-60.393-56.534-148.39-13.355-215.258 2.996-4.64 1.664-10.83-2.976-13.826-4.639-2.994-10.829-1.664-13.826 2.976-24.665 38.196-35.727 84.286-31.148 129.78 4.643 46.143 25.292 89.646 58.144 122.498 39.38 39.38 91.107 59.069 142.835 59.069s103.456-19.689 142.836-59.069c78.759-78.76 78.759-206.912 0-285.672-68.316-68.313-175.901-78.682-255.816-24.657zm-12.306 299.507c.813-1.643 1.705-3.226 3.067-5.585l26.135-45.268c20.037-34.704 55.922-55.423 95.995-55.423s75.958 20.719 95.995 55.423l26.135 45.268c1.419 2.459 2.311 4.024 3.13 5.689-70.062 66.428-180.439 66.394-250.457-.104z"/><path d="M127.289 127.324l.295-.294c3.915-3.896 3.93-10.227.035-14.142-3.896-3.916-10.228-3.93-14.142-.035l-.295.294c-3.915 3.896-3.931 10.227-.035 14.142a9.967 9.967 0 0 0 7.088 2.946c2.551 0 5.103-.97 7.054-2.911zm153.482 128.605a40.05 40.05 0 0 0 10.385 1.373c17.731-.001 34.004-11.852 38.808-29.78.099-.373.192-.745.261-1.034 2.788-11.284 2.048-23.804-2.198-37.212-3.51-11.081-12.306-19.475-23.529-22.452-11.211-2.975-22.997-.05-31.525 7.824-10.252 9.464-17.085 19.911-20.281 30.961-.112.375-.22.752-.322 1.132-5.73 21.39 7.01 43.456 28.401 49.188zm-9.083-44.016l.001-.003c.05-.189.104-.375.187-.652 2.195-7.587 7.128-14.96 14.662-21.915 2.605-2.405 5.838-3.667 9.217-3.667 1.193 0 2.406.158 3.615.479 4.641 1.231 8.137 4.57 9.591 9.159 3.118 9.846 3.74 18.721 1.828 26.461-.046.194-.094.389-.145.576-2.878 10.741-13.955 17.137-24.697 14.259-10.739-2.878-17.136-13.957-14.259-24.697zm86.056 78.267c6.185 3.571 13.049 5.396 20.005 5.396a40.414 40.414 0 0 0 10.457-1.386c10.358-2.775 19.015-9.418 24.377-18.706.194-.335.38-.672.521-.933 5.61-10.173 8.135-22.451 7.503-36.492-.521-11.606-6.842-21.985-16.908-27.764-10.054-5.771-22.189-5.997-32.46-.602-12.345 6.484-21.644 14.803-27.588 24.644a41.66 41.66 0 0 0-.601 1.005c-5.361 9.286-6.785 20.104-4.01 30.462s9.419 19.015 18.704 24.376zm2.627-44.837l.003-.005c.097-.168.198-.335.348-.58 4.08-6.755 10.748-12.595 19.817-17.359 2.046-1.075 4.224-1.61 6.396-1.61 2.333 0 4.66.618 6.808 1.851 4.16 2.388 6.669 6.513 6.885 11.316.463 10.309-1.231 19.035-5.08 26.013-.094.174-.189.347-.287.517-5.554 9.619-17.897 12.925-27.518 7.373a20.007 20.007 0 0 1-9.384-12.231 20.014 20.014 0 0 1 2.012-15.285zM94.819 241.02c-3.198 10.271-3.723 19.922-1.581 28.594.072.303.146.603.227.905l.001.005c3.851 14.369 16.895 23.869 31.111 23.869 2.75 0 5.546-.355 8.326-1.101 8.308-2.226 15.251-7.554 19.552-15.004 4.301-7.449 5.444-16.126 3.214-24.446-.08-.298-.165-.593-.226-.797-2.513-8.692-7.846-16.809-15.851-24.125-6.985-6.384-16.605-8.722-25.73-6.251-9.115 2.467-16.235 9.328-19.043 18.351zm19.097 5.944c1.101-3.538 3.984-4.668 5.173-4.99 1.192-.323 4.265-.802 7.013 1.709 5.247 4.795 8.655 9.814 10.157 15.007a12.12 12.12 0 0 1-1.122 9.599 12.126 12.126 0 0 1-7.408 5.686c-6.498 1.742-13.202-2.128-14.943-8.628-.031-.116-.06-.233-.108-.437-1.277-5.169-.861-11.207 1.238-17.946zm85.111 13.716c20.234 0 36.696-16.462 36.696-36.696 0-.354-.006-.707-.014-.971-.206-10.5-3.767-21.234-10.583-31.904-5.737-8.98-15.508-14.334-26.149-14.334h-.079c-10.661.026-20.427 5.426-26.126 14.445-6.699 10.6-10.206 21.276-10.424 31.733-.01.343-.015.686-.015 1.031-.001 20.234 16.46 36.696 36.694 36.696zm-16.687-37.174l.002-.104c.134-6.775 2.602-14.009 7.336-21.5 2.054-3.25 5.432-5.12 9.269-5.129h.03c3.836 0 7.223 1.858 9.295 5.102 4.805 7.521 7.309 14.764 7.443 21.616.005.163.008.327.008.491 0 9.206-7.49 16.696-16.696 16.696s-16.695-7.49-16.695-16.696c0-.158.003-.317.008-.476z"/></svg>