<svg height="512pt" viewBox="-85 0 512 512" width="512pt" xmlns="http://www.w3.org/2000/svg"><path d="M288.664 279.95H210.22V88.628h8.715c22.336 0 40.507-18.168 40.507-40.504v-7.621C259.441 18.172 241.27 0 218.934 0h-99.47c-22.33 0-40.502 18.172-40.502 40.504v7.621c0 22.336 18.172 40.504 40.504 40.504h12.82v191.32h-78.45C24.149 279.95 0 304.098 0 333.785v162.832C0 505.11 6.89 512 15.383 512H327.12c8.488 0 15.383-6.89 15.383-15.383V333.785c0-29.687-24.152-53.836-53.84-53.836zm23.074 201.284H30.766v-14.312h280.972zM30.766 436.156v-102.37c0-12.727 10.343-23.071 23.07-23.071h234.828c12.727 0 23.074 10.344 23.074 23.07v102.371zM163.046 88.63h16.407v191.32h-16.406zm-53.323-40.504v-7.621c0-5.371 4.37-9.738 9.742-9.738h99.469c5.375 0 9.742 4.367 9.742 9.738v7.621c0 5.375-4.367 9.742-9.742 9.742h-99.47c-5.37 0-9.741-4.367-9.741-9.742zm0 0"/><path d="M58.45 354.398v48.493c0 20.32 30.765 20.355 30.765 0v-48.493c0-20.32-30.766-20.355-30.766 0zm64.945 0v48.493c0 20.32 30.761 20.355 30.761 0v-48.493c0-20.054-30.761-20.503-30.761 0zm64.949 0v48.493c0 20.324 30.765 20.355 30.765 0v-48.493c0-20.68-30.765-20.05-30.765 0zm64.946 0v48.493c0 20.32 30.76 20.355 30.76 0v-48.493c0-20.32-30.76-20.355-30.76 0zm0 0"/></svg>