<svg xmlns="http://www.w3.org/2000/svg" width="444.227" height="444.227"><path d="M410.81 319.506l-59.579-34.396 31.143-8.346c5.334-1.43 8.5-6.913 7.07-12.247s-6.915-8.503-12.248-7.071l-50.46 13.521-.75-.434-28.933-48.542 28.719-48.183.953-.551 50.472 13.523c.867.232 1.737.344 2.595.344 4.415 0 8.456-2.947 9.652-7.415 1.431-5.334-1.735-10.817-7.07-12.247l-31.153-8.348 8.282-4.781.012-.008 51.292-29.613c4.783-2.762 6.422-8.877 3.66-13.66-2.761-4.782-8.878-6.423-13.66-3.66l-59.579 34.397 8.344-31.142c1.431-5.334-1.735-10.817-7.07-12.247-5.332-1.43-10.818 1.736-12.247 7.071l-13.521 50.46-.592.342-56.557.114-27.476-48.482v-.817l36.948-36.948c3.905-3.905 3.905-10.237 0-14.143-3.905-3.904-10.237-3.904-14.142 0l-22.806 22.806V10c0-5.522-4.477-10-10-10s-10 4.478-10 10v68.796l-22.798-22.798c-3.905-3.904-10.237-3.904-14.143 0-3.905 3.905-3.905 10.237 0 14.143l36.94 36.94v.839l-27.466 48.469-56.574-.114-.574-.331-13.523-50.471c-1.43-5.335-6.914-8.502-12.247-7.071-5.335 1.43-8.501 6.913-7.071 12.247L103 141.801l-8.281-4.781-.012-.006L43.416 107.4c-4.784-2.761-10.899-1.124-13.66 3.66-2.762 4.783-1.123 10.897 3.66 13.66l59.579 34.397-31.142 8.345c-5.335 1.43-8.501 6.913-7.071 12.247 1.197 4.468 5.237 7.415 9.653 7.415a9.98 9.98 0 0 0 2.594-.344l50.461-13.521.972.562 28.711 48.169-28.941 48.556-.731.423-50.471-13.524c-5.336-1.432-10.818 1.735-12.248 7.07-1.43 5.334 1.736 10.817 7.071 12.247l31.153 8.349-59.585 34.4c-4.783 2.762-6.422 8.877-3.66 13.66a9.995 9.995 0 0 0 13.66 3.66l51.296-29.615.007-.004 8.275-4.777-8.344 31.143c-1.43 5.334 1.736 10.816 7.071 12.246.867.232 1.738.345 2.595.345 4.415-.001 8.456-2.947 9.653-7.415l13.521-50.46 1.02-.589 56.13-.145 27.474 48.514v1.063l-36.948 36.948c-3.905 3.904-3.905 10.236 0 14.143 3.905 3.904 10.237 3.904 14.143 0l22.806-22.805v68.802c0 5.521 4.477 10 10 10s10-4.479 10-10v-68.797l22.797 22.799a9.975 9.975 0 0 0 7.071 2.928 9.971 9.971 0 0 0 7.07-2.928c3.905-3.906 3.906-10.238 0-14.145l-36.939-36.939v-1.084l27.467-48.5 56.145.145 1.001.578 13.523 50.471c1.197 4.468 5.236 7.415 9.652 7.415.856 0 1.729-.11 2.596-.345 5.334-1.43 8.5-6.912 7.07-12.246l-8.347-31.152 8.282 4.781.007.004 51.296 29.615a9.995 9.995 0 0 0 13.66-3.66c2.76-4.782 1.122-10.898-3.661-13.659zm-133.989-92.395l13.666 22.926-48.374-27.928 48.159-27.806-13.451 22.567a9.998 9.998 0 0 0 0 10.241zm-109.416-10.24l-13.443-22.554 48.151 27.801-48.382 27.933 13.673-22.939a10 10 0 0 0 .001-10.241zm54.712 6.635c-.281 0-.556.02-.831.042a10.184 10.184 0 0 0-.376-.735c-.143-.248-.3-.481-.46-.712.155-.224.318-.439.457-.68.141-.243.262-.492.38-.742.272.022.545.042.824.042.281 0 .556-.02.831-.042.117.247.237.494.376.735.141.242.305.461.46.688-.158.229-.313.46-.457.706-.14.243-.262.491-.379.741a9.414 9.414 0 0 0-.825-.043zm31.647-47.106h.021l27.596-.056-49.271 28.446v-56.318l12.954 22.858a9.996 9.996 0 0 0 8.7 5.07zm-63.321 0h.02c3.601 0 6.924-1.937 8.7-5.069l12.945-22.845v56.309l-49.278-28.45 27.613.055zm.02 91.146h-.026l-27.13.069 48.809-28.18v56.053l-12.952-22.871a9.996 9.996 0 0 0-8.701-5.071zm63.326 0h-.026a10.004 10.004 0 0 0-8.702 5.071l-12.944 22.857V239.43l48.815 28.185-27.143-.069z"/></svg>