<svg xmlns="http://www.w3.org/2000/svg" viewBox="0 0 152.5 154.1"><path d="M151.2 83.4L137 86.8l-5-2.6 3-4.7h7.4v-4.2H135l-3-4.7 5-2.6 14.2 3.4 1.3-4-9.6-2.3 7.4-3.8-2.3-3.6-7.4 3.9 2.5-8.6-4.6-1.1-3.8 12.7-5 2.6-3-4.7 3.7-5.7-4.1-2.2-3.7 5.7h-5.9v-5.2l10.4-9.3-3.3-2.9-7.1 6.4v-7.7h-2.3v71.9h2.3v-7.6l7.1 6.4 3.3-2.9-10.4-9.3v-5.2h5.9l3.7 5.7 4.1-2.2-3.7-5.7 3-4.7 5 2.6 3.8 12.7 4.6-1.1-2.5-8.6 7.4 3.8 2.3-3.6-7.4-3.8 9.6-2.3-1.3-4.3zm-34.5-18.9h5.9l3 4.7-8.9 4.7v-9.4zm5.9 25.8h-5.9V81l8.9 4.7-3 4.6zm5.3-8.2l-8.9-4.7 8.9-4.7 3 4.7-3 4.7z" fill="#fff"/><path d="M62.7 50.6v17.7H19.8v-2c0-5.1-4.1-9.2-9-9.2H9c-5 0-9 4.1-9 9.2v22.5C0 94 4.1 98 9 98h1.7c5 0 9-4.1 9-9.1V86h42.9v17.7c0 6.8 5.4 12.1 12 12.1h36.5c1.9 0 3.5-1.6 3.5-3.5V41.8c0-2-1.6-3.5-3.5-3.5H74.7c-6.6.2-12 5.5-12 12.3zm45-5.2v63.5h-3.2V45.4h3.2zm-10 63.4h-23c-2.8 0-5.1-2.3-5.1-5.2v-53c0-2.8 2.3-5.2 5.1-5.2h22.9v63.4zM19.8 79v-3.7h42.9V79H19.8zm-9 12H9c-1.2 0-2.1-1-2.1-2.2V66.4c0-1.2 1-2.2 2.1-2.2h1.7c1.2 0 2.1 1 2.1 2.2v22.5c.1 1.1-.9 2.1-2 2.1z" fill="#80b641"/></svg>