<svg height="512pt" viewBox="0 0 512 512" width="512pt" xmlns="http://www.w3.org/2000/svg"><path d="m510.855469 266.945312c-2.320313-5.605468-7.789063-9.257812-13.859375-9.257812h-65.332032v-202.519531c0-30.421875-24.746093-55.167969-55.164062-55.167969h-241.003906c-30.417969 0-55.164063 24.746094-55.164063 55.167969v202.519531h-65.332031c-6.066406 0-11.535156 3.65625-13.859375 9.261719-2.320313 5.605469-1.035156 12.058593 3.253906 16.347656l212.59375 212.597656c10.386719 10.386719 24.242188 16.105469 39.007813 16.105469 14.769531 0 28.625-5.722656 39.007812-16.109375l212.601563-212.597656c4.289062-4.289063 5.574219-10.742188 3.25-16.347657zm-345.742188-133.652343c12.546875-12.550781 32.890625-12.550781 45.441407 0 12.546874 12.546875 12.546874 32.890625 0 45.441406-12.550782 12.550781-32.894532 12.546875-45.441407 0-12.550781-12.550781-12.550781-32.894531 0-45.441406zm56.800781 170.410156c-12.546874 12.550781-32.894531 12.550781-45.441406 0-12.550781-12.546875-12.550781-32.894531 0-45.441406l113.609375-113.609375c12.546875-12.550782 32.894531-12.546875 45.441407 0 12.546874 12.546875 12.550781 32.894531 0 45.445312zm124.972657 11.359375c-12.550781 12.550781-32.894531 12.550781-45.441407 0-12.550781-12.546875-12.550781-32.894531 0-45.441406 12.546876-12.546875 32.890626-12.546875 45.441407 0s12.546875 32.894531 0 45.441406zm0 0"/></svg>