<?xml version="1.0" encoding="iso-8859-1"?>
<!-- Generator: Adobe Illustrator 19.0.0, SVG Export Plug-In . SVG Version: 6.00 Build 0)  -->
<svg version="1.1" id="Capa_1" xmlns="http://www.w3.org/2000/svg" xmlns:xlink="http://www.w3.org/1999/xlink" x="0px" y="0px"
	 viewBox="0 0 512 512" style="enable-background:new 0 0 512 512;" xml:space="preserve">
<circle style="fill:#F5B955;" cx="256" cy="256" r="246"/>
<g>
	<path style="fill:#A5DC69;" d="M120.531,119.941c-0.099,0.098-0.197,0.196-0.295,0.295"/>
	<circle style="fill:#A5DC69;" cx="256" cy="256" r="192"/>
</g>
<g>
	<path style="fill:#FFFFFF;" d="M256,448c53.702,0,102.245-22.057,137.09-57.594c-1.802-4.375-3.923-8.709-6.388-12.978
		l-26.135-45.268c-46.513-80.563-162.797-80.563-209.31,0l-26.135,45.268c-2.441,4.228-4.543,8.521-6.334,12.853
		C153.641,425.892,202.235,448,256,448z"/>
	<path style="fill:#FFFFFF;" d="M262.029,209.325c-4.311,16.09,5.24,32.633,21.33,36.944s32.633-5.24,36.944-21.33
		c0.076-0.283,0.146-0.566,0.214-0.85c2.696-10.913,1.039-22.125-2.023-31.795c-5.256-16.596-25.946-22.108-38.738-10.3
		c-7.416,6.846-14.371,15.719-17.485,26.484C262.187,208.759,262.106,209.041,262.029,209.325z"/>
	<path style="fill:#FFFFFF;" d="M351.711,240.343c-8.323,14.416-3.383,32.854,11.033,41.177s32.854,3.383,41.177-11.033
		c0.146-0.254,0.288-0.509,0.426-0.765c5.425-9.837,6.726-21.088,6.27-31.214c-0.781-17.379-19.327-28.051-34.728-19.961
		c-8.929,4.69-17.937,11.456-23.727,21.041C352.009,239.837,351.858,240.088,351.711,240.343z"/>
	<path style="fill:#FFFFFF;" d="M103.126,267.935c3.173,11.842,15.348,18.871,27.19,15.698s18.872-15.348,15.698-27.19
		c-0.056-0.208-0.115-0.415-0.177-0.62c-2.298-7.948-7.479-14.485-12.99-19.521c-9.458-8.644-24.673-4.543-28.481,7.69
		c-2.208,7.093-3.375,15.308-1.399,23.315C103.018,267.517,103.07,267.726,103.126,267.935z"/>
	<path style="fill:#FFFFFF;" d="M172.332,223.983c0,14.742,11.954,26.695,26.696,26.695s26.695-11.954,26.695-26.695
		c0-0.259-0.005-0.518-0.012-0.775c-0.195-9.946-4.179-19.151-9.012-26.716c-8.295-12.983-27.244-12.956-35.474,0.068
		c-4.772,7.551-8.684,16.729-8.881,26.644C172.337,223.463,172.332,223.723,172.332,223.983z"/>
</g>
<path d="M471.702,118.072c-2.979-4.65-9.166-6.004-13.814-3.025c-4.65,2.979-6.005,9.165-3.025,13.814
	C479.158,166.782,492,210.745,492,256c0,130.131-105.869,236-236,236S20,386.131,20,256S125.869,20,256,20
	c43.274,0,85.589,11.813,122.369,34.161c4.72,2.869,10.871,1.367,13.739-3.353s1.367-10.871-3.353-13.739
	C348.844,12.818,302.938,0,256,0C187.62,0,123.333,26.628,74.981,74.981C26.628,123.333,0,187.62,0,256
	s26.628,132.667,74.981,181.02C123.333,485.371,187.62,512,256,512s132.667-26.629,181.019-74.98
	C485.372,388.667,512,324.38,512,256C512,206.913,498.065,159.219,471.702,118.072z"/>
<path d="M423.001,89.248c1.953,1.953,4.512,2.929,7.071,2.929s5.119-0.976,7.071-2.929c3.905-3.905,3.905-10.237,0-14.143
	l-0.123-0.123c-3.905-3.905-10.237-3.905-14.143,0c-3.905,3.905-3.905,10.237,0,14.143L423.001,89.248z"/>
<path d="M143.021,88.506c-4.576,3.093-5.777,9.31-2.684,13.885c3.094,4.575,9.31,5.777,13.885,2.684
	c71.991-48.669,168.918-39.321,230.472,22.231c67.123,67.124,70.741,174.057,10.88,245.488c-0.07-0.122-0.138-0.24-0.211-0.365
	l-26.135-45.268c-23.651-40.966-66.013-65.423-113.315-65.423s-89.664,24.457-113.315,65.423l-26.135,45.268
	c-0.048,0.083-0.089,0.155-0.136,0.236c-50.341-60.393-56.534-148.39-13.355-215.258c2.996-4.64,1.664-10.83-2.976-13.826
	c-4.639-2.994-10.829-1.664-13.826,2.976c-24.665,38.196-35.727,84.286-31.148,129.78c4.643,46.143,25.292,89.646,58.144,122.498
	c39.38,39.38,91.107,59.069,142.835,59.069s103.456-19.689,142.836-59.069c78.759-78.76,78.759-206.912,0-285.672
	C330.521,44.85,222.936,34.481,143.021,88.506z M130.715,388.013c0.813-1.643,1.705-3.226,3.067-5.585l26.135-45.268
	c20.037-34.704,55.922-55.423,95.995-55.423s75.958,20.719,95.995,55.423l26.135,45.268c1.419,2.459,2.311,4.024,3.13,5.689
	C311.11,454.545,200.733,454.511,130.715,388.013z"/>
<path d="M127.289,127.324l0.295-0.294c3.915-3.896,3.93-10.227,0.035-14.142c-3.896-3.916-10.228-3.93-14.142-0.035l-0.295,0.294
	c-3.915,3.896-3.931,10.227-0.035,14.142c1.954,1.964,4.521,2.946,7.088,2.946C122.786,130.235,125.338,129.265,127.289,127.324z"/>
<path d="M280.771,255.929c3.469,0.93,6.953,1.373,10.385,1.373c17.731-0.001,34.004-11.852,38.808-29.78
	c0.099-0.373,0.192-0.745,0.261-1.034c2.788-11.284,2.048-23.804-2.198-37.212c-3.51-11.081-12.306-19.475-23.529-22.452
	c-11.211-2.975-22.997-0.05-31.525,7.824c-10.252,9.464-17.085,19.911-20.281,30.961c-0.112,0.375-0.22,0.752-0.322,1.132
	C246.64,228.131,259.38,250.197,280.771,255.929z M271.688,211.913c0-0.001,0-0.002,0.001-0.003c0.05-0.189,0.104-0.375,0.187-0.652
	c2.195-7.587,7.128-14.96,14.662-21.915c2.605-2.405,5.838-3.667,9.217-3.667c1.193,0,2.406,0.158,3.615,0.479
	c4.641,1.231,8.137,4.57,9.591,9.159c3.118,9.846,3.74,18.721,1.828,26.461c-0.046,0.194-0.094,0.389-0.145,0.576
	c-2.878,10.741-13.955,17.137-24.697,14.259C275.208,233.732,268.811,222.653,271.688,211.913z"/>
<path d="M357.744,290.18c6.185,3.571,13.049,5.396,20.005,5.396c3.487-0.001,6.998-0.459,10.457-1.386
	c10.358-2.775,19.015-9.418,24.377-18.706c0.194-0.335,0.38-0.672,0.521-0.933c5.61-10.173,8.135-22.451,7.503-36.492
	c-0.521-11.606-6.842-21.985-16.908-27.764c-10.054-5.771-22.189-5.997-32.46-0.602c-12.345,6.484-21.644,14.803-27.588,24.644
	c-0.204,0.331-0.405,0.666-0.601,1.005c-5.361,9.286-6.785,20.104-4.01,30.462S348.459,284.819,357.744,290.18z M360.371,245.343
	c0.001-0.001,0.002-0.003,0.003-0.005c0.097-0.168,0.198-0.335,0.348-0.58c4.08-6.755,10.748-12.595,19.817-17.359
	c2.046-1.075,4.224-1.61,6.396-1.61c2.333,0,4.66,0.618,6.808,1.851c4.16,2.388,6.669,6.513,6.885,11.316
	c0.463,10.309-1.231,19.035-5.08,26.013c-0.094,0.174-0.189,0.347-0.287,0.517c-5.554,9.619-17.897,12.925-27.518,7.373
	c-4.659-2.689-7.991-7.033-9.384-12.231C356.967,255.43,357.681,250.002,360.371,245.343z"/>
<path d="M94.819,241.02c-3.198,10.271-3.723,19.922-1.581,28.594c0.072,0.303,0.146,0.603,0.227,0.905
	c0,0.001,0.001,0.003,0.001,0.005c3.851,14.369,16.895,23.869,31.111,23.869c2.75,0,5.546-0.355,8.326-1.101
	c8.308-2.226,15.251-7.554,19.552-15.004c4.301-7.449,5.444-16.126,3.214-24.446c-0.08-0.298-0.165-0.593-0.226-0.797
	c-2.513-8.692-7.846-16.809-15.851-24.125c-6.985-6.384-16.605-8.722-25.73-6.251C104.747,225.136,97.627,231.997,94.819,241.02z
	 M113.916,246.964c1.101-3.538,3.984-4.668,5.173-4.99c1.192-0.323,4.265-0.802,7.013,1.709c5.247,4.795,8.655,9.814,10.157,15.007
	c0.035,0.117,0.069,0.234,0.098,0.341c0.843,3.147,0.41,6.436-1.22,9.258c-1.63,2.823-4.261,4.842-7.408,5.686
	c-6.498,1.742-13.202-2.128-14.943-8.628c-0.031-0.116-0.06-0.233-0.108-0.437C111.401,259.741,111.817,253.703,113.916,246.964z"/>
<path d="M199.027,260.68c20.234,0,36.696-16.462,36.696-36.696c0-0.354-0.006-0.707-0.014-0.971
	c-0.206-10.5-3.767-21.234-10.583-31.904c-5.737-8.98-15.508-14.334-26.149-14.334c-0.026,0-0.053,0-0.079,0
	c-10.661,0.026-20.427,5.426-26.126,14.445c-6.699,10.6-10.206,21.276-10.424,31.733c-0.01,0.343-0.015,0.686-0.015,1.031
	C162.332,244.218,178.793,260.68,199.027,260.68z M182.34,223.506c0.001-0.035,0.002-0.069,0.002-0.104
	c0.134-6.775,2.602-14.009,7.336-21.5c2.054-3.25,5.432-5.12,9.269-5.129c0.01,0,0.02,0,0.03,0c3.836,0,7.223,1.858,9.295,5.102
	c4.805,7.521,7.309,14.764,7.443,21.616c0.005,0.163,0.008,0.327,0.008,0.491c0,9.206-7.49,16.696-16.696,16.696
	s-16.695-7.49-16.695-16.696C182.332,223.824,182.335,223.665,182.34,223.506z"/>
<g>
</g>
<g>
</g>
<g>
</g>
<g>
</g>
<g>
</g>
<g>
</g>
<g>
</g>
<g>
</g>
<g>
</g>
<g>
</g>
<g>
</g>
<g>
</g>
<g>
</g>
<g>
</g>
<g>
</g>
</svg>
