<svg height="512pt" viewBox="-85 0 512 512" width="512pt" xmlns="http://www.w3.org/2000/svg"><path d="m288.664062 279.949219h-78.445312v-191.320313h8.714844c22.335937 0 40.507812-18.167968 40.507812-40.503906v-7.621094c0-22.332031-18.171875-40.503906-40.507812-40.503906h-99.46875c-22.332032 0-40.503906 18.171875-40.503906 40.503906v7.621094c0 22.335938 18.171874 40.503906 40.503906 40.503906h12.820312v191.320313h-78.449218c-29.6875 0-53.835938 24.148437-53.835938 53.835937v162.832032c0 8.492187 6.890625 15.382812 15.382812 15.382812h311.738282c8.488281 0 15.382812-6.890625 15.382812-15.382812v-162.832032c0-29.6875-24.152344-53.835937-53.839844-53.835937zm23.074219 201.285156h-280.972656v-14.3125h280.972656zm-280.972656-45.078125v-102.371094c0-12.726562 10.34375-23.070312 23.070313-23.070312h234.828124c12.726563 0 23.074219 10.34375 23.074219 23.070312v102.371094zm132.28125-347.527344h16.40625v191.320313h-16.40625zm-53.324219-40.503906v-7.621094c0-5.371094 4.371094-9.738281 9.742188-9.738281h99.46875c5.375 0 9.742187 4.367187 9.742187 9.738281v7.621094c0 5.375-4.367187 9.742188-9.742187 9.742188-10.417969 0-89.007813 0-99.46875 0-5.371094 0-9.742188-4.367188-9.742188-9.742188zm0 0"/><path d="m58.449219 354.398438v48.492187c0 20.320313 30.765625 20.355469 30.765625 0v-48.492187c0-20.320313-30.765625-20.355469-30.765625 0zm0 0"/><path d="m123.394531 354.398438v48.492187c0 20.320313 30.761719 20.355469 30.761719 0 0-10.34375 0-37.882813 0-48.492187 0-20.054688-30.761719-20.503907-30.761719 0zm0 0"/><path d="m188.34375 354.398438v48.492187c0 20.324219 30.765625 20.355469 30.765625 0v-48.492187c0-20.679688-30.765625-20.050782-30.765625 0zm0 0"/><path d="m253.289062 354.398438v48.492187c0 20.320313 30.761719 20.355469 30.761719 0v-48.492187c0-20.320313-30.761719-20.355469-30.761719 0zm0 0"/></svg>