<svg xmlns="http://www.w3.org/2000/svg" viewBox="0 0 32 32"><path d="M23.2 0H8.8C4 0 0 4 0 8.8v14.3C0 28 4 32 8.8 32h14.3c4.9 0 8.8-4 8.8-8.8V8.8C32 4 28 0 23.2 0zm6 23.2c0 3.3-2.7 6-6 6H8.8c-3.3 0-6-2.7-6-6V8.8c0-3.3 2.7-6 6-6h14.3c3.3 0 6 2.7 6 6l.1 14.4z"/><path d="M16 7.8c-4.5 0-8.2 3.7-8.2 8.2 0 4.5 3.7 8.2 8.2 8.2s8.2-3.7 8.2-8.2c0-4.5-3.7-8.2-8.2-8.2zm0 13.6c-3 0-5.4-2.4-5.4-5.4 0-3 2.4-5.4 5.4-5.4s5.4 2.4 5.4 5.4c0 3-2.4 5.4-5.4 5.4zM24.6 5.3c-.5 0-1.1.2-1.5.6-.4.4-.6.9-.6 1.5 0 .5.2 1.1.6 1.5.4.4.9.6 1.5.6.5 0 1.1-.2 1.5-.6.4-.4.6-.9.6-1.5 0-.5-.2-1.1-.6-1.5-.4-.3-1-.6-1.5-.6z"/></svg>