<svg id="Logo" xmlns="http://www.w3.org/2000/svg" viewBox="0 0 169.7 31"><style>.st0{fill:#80b641}.st1{fill:#fff}</style><path class="st0" d="M2.3 26.3C1.2 25.1.7 23.1.7 20.4v-2.6H6v3.4c0 1.3.4 2 1.3 2 .5 0 .8-.1 1-.4s.3-.8.3-1.4c0-.9-.1-1.6-.3-2.2s-.5-1.1-.8-1.4c-.3-.4-.9-1-1.7-1.8l-2.3-2.3C1.7 11.9.8 10 .8 7.8c0-2.3.5-4.1 1.6-5.3S5 .7 7 .7c2.4 0 4.2.6 5.3 1.9s1.6 3.3 1.6 6.1H8.3V6.8c0-.4-.1-.6-.3-.8-.2-.3-.5-.4-.9-.4s-.7.1-.9.3c-.2.2-.3.5-.3.9 0 .9.5 1.8 1.5 2.7l3.1 3c.7.7 1.3 1.4 1.8 2s.9 1.4 1.2 2.3c.3.9.4 1.9.4 3.1 0 2.7-.5 4.7-1.5 6.1-1 1.4-2.6 2.1-4.8 2.1-2.4 0-4.2-.6-5.3-1.8zM15.8 27.9V.9h5.4v9.7h2.5V.8h5.4v27h-5.4V15.6h-2.5v12.3h-5.4zM32.9 26.1c-1.1-1.3-1.7-3.2-1.7-5.6V7.6c0-2.3.6-4.1 1.7-5.3C34 1.1 35.7.5 37.9.5s3.8.6 5 1.8c1.1 1.2 1.7 2.9 1.7 5.3v12.9c0 2.4-.6 4.3-1.7 5.6-1.1 1.3-2.8 2-5 2s-3.8-.7-5-2zm6-3.6c.2-.4.3-1 .3-1.8V7.5c0-.6-.1-1.1-.2-1.4-.2-.4-.5-.6-1-.6-.9 0-1.4.7-1.4 2v13.2c0 .8.1 1.4.3 1.8s.5.6 1 .6.8-.2 1-.6zM49.2 27.9L45.9.8H51l2 18.4L54.8.8H60l-3.3 27.1h-7.5zM61.5 27.9V.9h10.8v5.2H67v5.3h5.1v5.1H67v6.2h5.7V28H61.5v-.1zM74.5 27.9V.9h5.4v22.4h5.6v4.6h-11z"/><path class="st1" d="M95.4 26.3c-1.1-1.2-1.6-3.2-1.6-5.9v-2.6h5.3v3.4c0 1.3.4 2 1.3 2 .5 0 .8-.1 1-.4s.3-.8.3-1.4c0-.9-.1-1.6-.3-2.2-.2-.6-.5-1.1-.8-1.4-.3-.4-.9-1-1.7-1.8l-2.3-2.3c-1.8-1.8-2.7-3.7-2.7-5.9 0-2.3.5-4.1 1.6-5.3S98.1.7 100.1.7c2.4 0 4.2.6 5.3 1.9 1.1 1.3 1.6 3.3 1.6 6.1h-5.5V6.8c0-.4-.1-.6-.3-.8-.2-.2-.5-.3-.8-.3-.4 0-.7.1-.9.3-.2.2-.3.5-.3.9 0 .9.5 1.8 1.5 2.7l3.1 3c.7.7 1.3 1.4 1.8 2s.9 1.4 1.2 2.3c.3.9.4 1.9.4 3.1 0 2.7-.5 4.7-1.5 6.1-1 1.4-2.6 2.1-4.8 2.1-2.6-.1-4.4-.7-5.5-1.9zM116.5 27.9c-.8.1-1.2.2-1.4.2-2.2 0-3.8-.6-5-1.9-1.1-1.2-1.7-3.1-1.7-5.5v-13c0-2.3.6-4.1 1.7-5.3s2.8-1.8 5-1.8 3.8.6 5 1.8c1.1 1.2 1.7 3 1.7 5.3v13.1c0 2.2-.5 4-1.5 5.3l2.3 1.5-1.8 3.2-4.3-2.9zm-.4-5.5c.1-.5.2-1.2.2-2V7.8c0-.7-.1-1.2-.3-1.6-.2-.4-.5-.6-1-.6-.9 0-1.3.7-1.3 2.2v12.8c0 .8.1 1.4.3 1.9.2.5.5.7 1.1.7.5-.1.9-.3 1-.8zM125.7 26.2c-1.1-1.3-1.6-3.1-1.6-5.6V.8h5.3v19.6c0 .9.1 1.5.3 2s.5.7 1.1.7.9-.2 1.1-.7c.2-.5.3-1.1.3-2V.8h5.3v19.8c0 2.5-.5 4.3-1.6 5.6-1.1 1.3-2.7 1.9-5 1.9s-4.2-.6-5.2-1.9zM138.5 27.9l2.6-27h9.2l2.6 27h-5.1l-.4-4.4h-3.3l-.3 4.4h-5.3zm6-8.7h2.5l-1.2-13.7h-.3l-1 13.7zM154.5.8h7.5c1.9 0 3.4.5 4.3 1.6 1 1.1 1.5 2.7 1.5 4.8l.1 12.6c0 2.7-.4 4.7-1.4 6-.9 1.3-2.5 2-4.7 2h-7.3V.8zm6.4 22.3c1 0 1.5-.5 1.5-1.4v-14c0-.6 0-1.1-.1-1.4s-.3-.5-.5-.6c-.3-.1-.6-.2-1.2-.2h-.6V23h.9v.1z"/></svg>