<svg id="Logo" xmlns="http://www.w3.org/2000/svg" viewBox="0 0 281.6 220.8"><style>.st0{fill:#fff}</style><path class="st0" d="M210.8 100.6l-14.6 3.5-5.1-2.7 3.1-4.8h7.6v-4.3h-7.6l-3.1-4.8 5.1-2.7 14.6 3.5 1.3-4.1-9.9-2.4 7.6-3.9-2.4-3.7-7.6 4 2.6-8.8-4.7-1.1-3.9 13-5.2 2.7-3.1-4.8 3.8-5.8-4.2-2.2-3.8 5.8h-6.1v-5.3l10.7-9.5-3.4-3-7.3 6.5v-7.9h-2.4v73.5h2.4v-7.8l7.3 6.5 3.4-3-10.7-9.5v-5.3h6.1l3.8 5.8 4.2-2.2-3.8-5.8 3.1-4.8 5.1 2.7 3.9 13 4.7-1.1-2.6-8.8 7.6 3.9 2.4-3.7-7.6-3.9 9.9-2.4-1.2-4.3zm-35.6-19.3h6.1l3.1 4.8-9.2 4.8v-9.6zm6.1 26.4h-6.1v-9.5l9.2 4.8-3.1 4.7zm5.5-8.4l-9.2-4.8 9.2-4.8 3.1 4.8-3.1 4.8zM3.8 203.3c-1.8-2-2.7-5.3-2.7-9.8V189H10v5.6c0 2.2.7 3.4 2.2 3.4.8 0 1.4-.2 1.7-.7s.5-1.3.5-2.4c0-1.5-.2-2.7-.5-3.6-.4-1-.8-1.8-1.3-2.4-.5-.6-1.5-1.7-2.9-3L5.6 182c-3-2.9-4.5-6.2-4.5-9.8 0-3.8.9-6.8 2.7-8.8s4.3-3 7.7-3c4.1 0 7 1.1 8.8 3.2 1.8 2.2 2.7 5.5 2.7 10.1h-9.2l-.1-3.1c0-.6-.2-1.1-.5-1.4-.3-.3-.8-.5-1.4-.5-.7 0-1.2.2-1.6.6-.4.4-.5.9-.5 1.6 0 1.5.8 3 2.5 4.6l5.2 5c1.2 1.2 2.2 2.3 3 3.4.8 1.1 1.5 2.3 1.9 3.8.5 1.5.7 3.2.7 5.2 0 4.4-.8 7.8-2.4 10.1s-4.3 3.4-8.1 3.4c-3.9-.1-6.8-1.1-8.7-3.1zM26.2 205.9v-45.1h9v16.1h4.3v-16.1h9v45.1h-9v-20.5h-4.3v20.5h-9zM54.9 203c-1.9-2.2-2.8-5.3-2.8-9.4v-21.5c0-3.9.9-6.8 2.8-8.8s4.7-3 8.3-3c3.6 0 6.4 1 8.3 3s2.8 4.9 2.8 8.8v21.5c0 4.1-.9 7.2-2.8 9.4s-4.7 3.3-8.3 3.3c-3.7 0-6.5-1.1-8.3-3.3zm9.9-6c.3-.7.4-1.7.4-2.9v-22c0-1-.1-1.8-.4-2.4-.3-.6-.8-.9-1.6-.9-1.5 0-2.3 1.1-2.3 3.4v22c0 1.3.2 2.3.5 2.9.3.7.9 1 1.7 1 .8-.1 1.4-.4 1.7-1.1zM82 205.9l-5.6-45.1H85l3.3 30.7 2.9-30.7h8.6l-5.6 45.1H82zM102.5 205.9v-45.1h18.1v8.7h-8.9v8.8h8.5v8.5h-8.5v10.3h9.4v8.8h-18.6zM124.1 205.9v-45.1h9v37.4h9.3v7.7h-18.3zM159.1 203.3c-1.8-2-2.7-5.3-2.7-9.8V189h8.9v5.6c0 2.2.7 3.4 2.2 3.4.8 0 1.4-.2 1.7-.7s.5-1.3.5-2.4c0-1.5-.2-2.7-.5-3.6-.3-1-.8-1.8-1.3-2.4-.5-.6-1.5-1.7-2.9-3l-3.9-3.9c-3-2.9-4.5-6.2-4.5-9.8 0-3.8.9-6.8 2.7-8.8s4.3-3 7.7-3c4.1 0 7 1.1 8.8 3.2 1.8 2.2 2.7 5.5 2.7 10.1H169l-.1-3.1c0-.6-.2-1.1-.5-1.4-.3-.3-.8-.5-1.4-.5-.7 0-1.2.2-1.6.6-.4.4-.5.9-.5 1.6 0 1.5.8 3 2.5 4.6l5.2 5c1.2 1.2 2.2 2.3 3 3.4.8 1.1 1.5 2.3 1.9 3.8.5 1.5.7 3.2.7 5.2 0 4.4-.8 7.8-2.4 10.1-1.6 2.3-4.3 3.4-8.1 3.4-3.8-.1-6.8-1.1-8.6-3.1zM194.2 205.9c-1.3.2-2.1.4-2.3.4-3.6 0-6.4-1-8.3-3.1s-2.8-5.1-2.8-9.2v-21.8c0-3.9 1-6.8 2.9-8.8s4.7-3 8.3-3 6.4 1 8.3 3c1.9 2 2.9 5 2.9 8.8V194c0 3.7-.8 6.6-2.5 8.8l3.9 2.5-3 5.4-7.4-4.8zm-.6-9.1c.2-.8.4-1.9.4-3.3v-21.1c0-1.2-.1-2.1-.4-2.7-.3-.7-.8-1-1.7-1-1.4 0-2.2 1.2-2.2 3.7v21.3c0 1.3.1 2.3.4 3.1.3.8.9 1.2 1.8 1.2s1.5-.4 1.7-1.2zM209.6 203.2c-1.8-2.1-2.7-5.2-2.7-9.3v-33h8.8v32.6c0 1.4.1 2.6.4 3.4.3.8.9 1.2 1.8 1.2s1.5-.4 1.8-1.2.4-1.9.4-3.4v-32.6h8.8v33c0 4.1-.9 7.2-2.7 9.3s-4.6 3.1-8.3 3.1-6.5-1-8.3-3.1zM231.1 205.9l4.4-45.1h15.3l4.3 45.1h-8.6l-.6-7.3h-5.5l-.5 7.3h-8.8zm9.9-14.5h4.1l-2-22.9h-.4l-1.7 22.9zM257.7 160.8h12.4c3.2 0 5.6.9 7.2 2.7s2.4 4.4 2.5 7.9l.1 21.1c0 4.4-.7 7.8-2.3 10-1.6 2.2-4.2 3.4-7.8 3.4h-12.1v-45.1zm10.7 37.1c1.6 0 2.5-.8 2.5-2.4v-23.3c0-1-.1-1.8-.2-2.3-.2-.5-.4-.8-.9-1s-1.1-.3-1.9-.3h-1v29.2h1.5v.1z"/><path class="st0" d="M119.6 67.1v18.1H75.4v-2c0-5.2-4.2-9.4-9.3-9.4h-1.8c-5.2 0-9.3 4.2-9.3 9.4v23c0 5.2 4.2 9.3 9.3 9.3h1.8c5.2 0 9.3-4.2 9.3-9.3v-3h44.2v18.1c0 6.9 5.6 12.4 12.4 12.4h37.6c2 0 3.6-1.6 3.6-3.6v-72c0-2-1.6-3.6-3.6-3.6H132c-6.8.2-12.4 5.7-12.4 12.6zm46.4-5.3v64.9h-3.3V61.8h3.3zm-10.4 64.8H132c-2.9 0-5.3-2.4-5.3-5.3V67.1c0-2.9 2.4-5.3 5.3-5.3h23.6v64.8zM75.4 96.1v-3.8h44.2v3.8H75.4zm-9.3 12.3h-1.8c-1.2 0-2.2-1-2.2-2.2v-23c0-1.2 1-2.2 2.2-2.2h1.8c1.2 0 2.2 1 2.2 2.2v23c0 1.2-1 2.2-2.2 2.2z"/></svg>