<svg xmlns="http://www.w3.org/2000/svg"><defs><font id="icomoon" horiz-adv-x="1024"><font-face units-per-em="1024" ascent="960" descent="-64"/><glyph horiz-adv-x="512"/><glyph unicode="" glyph-name="cancel" d="M60.329-3.671c6.35-6.35 14.288-9.526 23.02-9.526s16.67 3.175 23.02 9.526L512 401.96 917.631-3.671c6.35-6.35 14.288-9.526 23.02-9.526 7.938 0 16.67 3.175 23.02 9.526 12.701 12.701 12.701 33.34 0 46.04L558.04 448l405.631 405.631c12.701 12.701 12.701 33.34 0 46.04s-33.34 12.701-46.04 0L512 494.04 106.369 899.671c-12.701 12.701-33.34 12.701-46.04 0s-12.701-33.34 0-46.04L465.96 448 60.329 42.369c-12.701-12.701-12.701-33.34 0-46.04z"/><glyph unicode="" glyph-name="facebook" d="M150-64h334v364H364v120h120v150c0 82.711 67.289 150 150 150h150V600H664c-33.086 0-60-26.914-60-60V420h174.586l-20-120H604V-64h270c82.711 0 150 67.289 150 150v724c0 82.711-67.289 150-150 150H150C67.289 960 0 892.711 0 810V86C0 3.289 67.289-64 150-64zM60 810c0 49.625 40.375 90 90 90h724c49.625 0 90-40.375 90-90V86c0-49.625-40.375-90-90-90H664v244h145.414l40 240H664v60h180v240H634c-115.797 0-210-94.203-210-210v-90H304V240h120V-4H150c-49.625 0-90 40.375-90 90z"/><glyph unicode="" glyph-name="instagram" d="M150-64h724c82.711 0 150 67.289 150 150v724c0 82.711-67.289 150-150 150H150C67.289 960 0 892.711 0 810V86C0 3.289 67.289-64 150-64zM60 810c0 49.625 40.375 90 90 90h724c49.625 0 90-40.375 90-90V86c0-49.625-40.375-90-90-90H150c-49.625 0-90 40.375-90 90zm452-632c148.875 0 270 121.125 270 270S660.875 718 512 718 242 596.875 242 448s121.125-270 270-270zm0 480c115.797 0 210-94.203 210-210s-94.203-210-210-210-210 94.203-210 210 94.203 210 210 210zm300 0c49.625 0 90 40.375 90 90s-40.375 90-90 90-90-40.375-90-90 40.375-90 90-90zm0 120c16.539 0 30-13.461 30-30s-13.461-30-30-30-30 13.461-30 30 13.461 30 30 30z"/><glyph unicode="" glyph-name="left-arrow" d="M703.305-2.878c6.35-6.35 14.288-9.526 23.02-9.526s16.67 3.175 23.02 9.526c12.701 12.701 12.701 33.34 0 46.04L344.508 447.999l404.837 404.837c12.701 12.701 12.701 33.34 0 46.04s-33.34 12.701-46.04 0L274.654 471.019c-12.701-12.701-12.701-33.34 0-46.04L703.305-2.878z"/><glyph unicode="" glyph-name="menu" d="M725.532 694.078H298.468c-18.257 0-32.546-14.288-32.546-32.546s14.288-32.546 32.546-32.546h427.857c18.257 0 32.546 14.288 32.546 32.546-.794 18.257-15.082 32.546-33.34 32.546zm0-427.858H298.468c-18.257 0-32.546-14.288-32.546-32.546s14.288-32.546 32.546-32.546h427.857c18.257 0 32.546 14.288 32.546 32.546-.794 18.257-15.082 32.546-33.34 32.546zm0 214.326H298.468c-18.257 0-32.546-14.288-32.546-32.546s14.288-32.546 32.546-32.546h427.857c18.257 0 32.546 14.288 32.546 32.546-.794 18.257-15.082 32.546-33.34 32.546z"/><glyph unicode="" glyph-name="placeholder" d="M512 909.197c-202.419 0-367.529-165.11-367.529-368.322 0-24.608 2.381-49.216 7.144-73.029 0-1.588.794-3.175.794-5.557C192.893 280.509 477.866 7.442 489.773-3.671c6.35-6.35 14.288-8.732 22.226-8.732s15.876 3.175 22.226 8.732c11.907 11.907 295.293 284.18 335.777 461.991 0 1.588.794 3.175.794 4.763 5.557 25.402 7.938 51.597 7.938 77.792.794 203.212-164.316 368.322-366.735 368.322zm295.293-434.208v-2.381C777.129 340.837 579.473 132.862 512 65.389c-67.473 67.473-265.922 275.448-296.087 410.394 0 1.588 0 2.381-.794 3.969-3.969 20.639-6.35 41.278-6.35 61.916 0 166.698 135.74 303.231 302.437 303.231s303.231-135.74 303.231-303.231c0-23.02-2.381-45.247-7.144-66.679zM512 702.016c-68.267 0-123.039-55.566-123.039-123.039S444.527 455.938 512 455.938s123.039 54.772 123.039 123.039S580.267 702.016 512 702.016zm0-181.78c-32.546 0-58.741 26.195-58.741 58.741s26.195 58.741 58.741 58.741 58.741-26.195 58.741-58.741-26.195-58.741-58.741-58.741z"/><glyph unicode="" glyph-name="right-arrow" d="M320.695-2.878c-6.35-6.35-14.288-9.526-23.02-9.526s-16.67 3.175-23.02 9.526c-12.701 12.701-12.701 33.34 0 46.04l404.837 404.837-404.837 404.837c-12.701 12.701-12.701 33.34 0 46.04s33.34 12.701 46.04 0l427.857-427.857c12.701-12.701 12.701-33.34 0-46.04L320.695-2.878z"/><glyph unicode="" glyph-name="search" d="M409.6 192.397c87.318 0 166.698 30.958 228.614 83.349L916.043-2.083c6.35-6.35 14.288-9.526 23.02-9.526s16.67 3.175 23.02 9.526c12.701 12.701 12.701 33.34 0 46.04L684.254 321.786c51.597 61.916 83.349 142.09 83.349 228.614 0 197.656-160.347 358.003-358.003 358.003-196.862 0-358.003-161.141-358.003-358.003 0-197.656 161.141-358.003 358.003-358.003zm0 650.915c161.935 0 292.912-131.771 292.912-292.912 0-161.935-130.977-292.912-292.912-292.912S116.688 389.259 116.688 550.4 248.459 843.312 409.6 843.312z"/><glyph unicode="" glyph-name="speech-bubble" d="M277.829 567.07H746.17c18.257 0 32.546 14.288 32.546 32.546s-14.288 32.546-32.546 32.546H277.829c-18.257 0-32.546-14.288-32.546-32.546s14.288-32.546 32.546-32.546zm0-157.172H746.17c18.257 0 32.546 14.288 32.546 32.546s-14.288 32.546-32.546 32.546H277.829c-18.257 0-32.546-14.288-32.546-32.546s14.288-32.546 32.546-32.546zM83.349 199.541H188.13V92.378c0-12.701 7.144-23.814 18.257-29.371 4.763-2.381 9.526-3.175 14.288-3.175 7.144 0 14.288 2.381 19.845 6.35l174.636 132.564h525.495c18.257 0 32.546 14.288 32.546 32.546v578.679c0 18.257-14.288 32.546-32.546 32.546H83.349c-18.257 0-32.546-14.288-32.546-32.546V232.086c0-18.257 15.082-32.546 32.546-32.546zm32.546 577.885h791.417V264.632H404.044c-7.144 0-14.288-2.381-19.845-6.35L253.222 158.263v73.823c0 18.257-14.288 32.546-32.546 32.546H115.895v512.794z"/><glyph unicode="" glyph-name="twitter" d="M1024 754.07c-64.414-2.969-63.008-2.727-70.289-3.336l38.148 108.945s-119.078-43.805-149.266-51.641c-79.281 71.258-197.125 74.406-281.375 22.625-68.992-42.414-106.023-115.25-93.672-200.383-134.273 18.633-247.406 82.281-336.727 189.578l-28.25 33.93-21.109-38.766C54.78 766.038 45.921 710.03 56.507 657.319a226.61 226.61 0 0 1 21.953-61.563l-24.234 9.391-2.875-40.492c-2.914-41.133 10.781-89.148 36.641-128.43a228.301 228.301 0 0 1 28.539-35.195l-12.523 1.922 15.281-46.398c20.086-60.961 61.805-108.125 115.945-134.344-54.07-22.945-97.75-37.586-169.547-61.203L-.001 139.413l60.672-33.172C83.804 93.593 165.546 51.35 246.312 38.678c179.531-28.156 381.664-5.227 517.742 117.328 114.617 103.227 152.227 250.063 144.414 402.867-1.18 23.133 5.156 45.211 17.844 62.156 25.414 33.93 97.531 132.813 97.688 133.039zm-145.664-97.101c-21.07-28.133-31.625-64.063-29.734-101.156 7.883-154.133-34.055-273.664-124.656-355.258C618.11 105.235 447.399 67.821 255.602 97.907c-34.734 5.445-70.633 17.641-100.344 29.82 60.195 20.711 106.68 39.172 181.75 74.703l104.797 49.602-115.703 7.406c-55.422 3.547-101.57 30.406-129.938 74.016 15.063.875 29.586 3.313 44.047 7.344l110.352 30.734-111.273 27.25c-54.07 13.242-84.891 45.594-101.227 70.406-10.727 16.305-17.734 33.008-21.938 48.406 11.156-2.992 24.164-5.125 45.141-7.203l102.992-10.188-81.602 63.656c-58.797 45.859-82.359 114.758-65.086 180.992 183.5-190.328 398.953-176.023 420.641-181.055-4.773 46.367-4.898 46.477-6.148 50.891-27.773 98.18 33.094 148.031 60.547 164.906 57.344 35.242 148.367 40.555 211.414-17.508 13.617-12.531 32.031-17.461 49.266-13.18 15.469 3.844 28.164 7.914 40.594 12.344l-25.875-73.891 33.031-.023a16524.061 16524.061 0 0 0-22.703-30.367z"/><glyph unicode="" glyph-name="computer" d="M947.423 880.125H76.556C34.337 880.125 0 845.77 0 803.548v-575.44c0-42.241 34.337-76.556 76.556-76.556h344.2c-.377-25.638-3.118-60.373-14.001-84.8h-59.218c-14.06 0-25.44-11.399-25.44-25.44 0-14.081 11.381-25.44 25.44-25.44h328.929c14.06 0 25.44 11.359 25.44 25.44 0 14.041-11.381 25.44-25.44 25.44h-59.239c-10.862 24.408-13.643 59.162-14.001 84.8h344.218c42.219 0 76.556 34.337 76.556 76.556v575.44c-.022 42.222-34.358 76.577-76.577 76.577zm36.839-652.017c0-20.317-16.522-36.839-36.839-36.839H76.556c-20.317 0-36.839 16.522-36.839 36.839v49.889h944.564v-49.886h-.019zM39.719 317.694v485.854c0 20.317 16.522 36.858 36.839 36.858h870.867c20.317 0 36.839-16.544 36.839-36.858V317.713l-944.546-.019z"/><glyph unicode="" glyph-name="shovel" d="M747.328 400.102H590.437v382.641h17.43c44.672 0 81.016 36.336 81.016 81.008v15.242c0 44.664-36.344 81.008-81.016 81.008H408.929c-44.664 0-81.008-36.344-81.008-81.008v-15.242c0-44.672 36.344-81.008 81.008-81.008h25.641V400.102H277.672C218.297 400.102 170 351.805 170 292.43V-33.234C170-50.218 183.781-64 200.766-64h623.477c16.977 0 30.766 13.781 30.766 30.766V292.43c0 59.375-48.305 107.672-107.68 107.672zM793.477-2.469H231.532v28.625h561.945zM231.531 87.687v204.742c0 25.453 20.688 46.141 46.141 46.141h469.656c25.453 0 46.148-20.688 46.148-46.141V87.687zm264.563 695.055h32.813V400.101h-32.813zM389.445 863.75v15.242c0 10.742 8.742 19.477 19.484 19.477h198.938c10.75 0 19.484-8.734 19.484-19.477V863.75c0-10.75-8.734-19.484-19.484-19.484H408.929c-10.742 0-19.484 8.734-19.484 19.484zM286.898 251.203v-96.984c0-40.641 61.531-40.711 61.531 0v96.984c0 40.641-61.531 40.711-61.531 0zm129.891 0v-96.984c0-40.641 61.523-40.711 61.523 0v96.984c0 40.109-61.523 41.008-61.523 0zm129.899 0v-96.984c0-40.648 61.531-40.711 61.531 0v96.984c0 41.359-61.531 40.102-61.531 0zm129.89 0v-96.984c0-40.641 61.523-40.711 61.523 0v96.984c0 40.641-61.523 40.711-61.523 0z"/><glyph unicode="" glyph-name="snowflake" d="M941.72 342.155l-122.914-32.938-90.016 51.969v177.625l90.016 51.969 122.914-32.93c16.664-4.469 33.774 5.43 38.234 22.078 4.469 16.648-5.414 33.774-22.07 38.234l-62.61 16.773 49.219 28.414c14.93 8.625 20.047 27.719 11.422 42.649-8.617 14.93-27.711 20.047-42.641 11.43l-49.219-28.414 16.773 62.602c4.461 16.656-5.422 33.774-22.078 38.234-16.656 4.469-33.774-5.414-38.234-22.07l-32.938-122.922-90.008-51.969-153.836 88.82v103.93l89.985 89.985c12.188 12.195 12.188 31.961 0 44.149-12.195 12.195-31.961 12.195-44.156 0l-45.828-45.828v56.836c0 17.242-13.984 31.219-31.227 31.219s-31.219-13.977-31.219-31.219v-56.836l-45.828 45.836c-12.188 12.188-31.953 12.188-44.149 0-12.195-12.195-12.195-31.961 0-44.156l89.977-89.977V681.71l-153.828-88.82-90.016 51.969-32.93 122.922c-4.469 16.656-21.586 26.531-38.242 22.07s-26.539-21.578-22.078-38.234l16.781-62.602-49.219 28.414c-14.938 8.617-34.031 3.5-42.649-11.43-8.625-14.93-3.508-34.024 11.43-42.649l49.211-28.414-62.602-16.773c-16.656-4.461-26.539-21.586-22.078-38.234s21.563-26.547 38.234-22.078l122.922 32.93 90.008-51.969V361.187l-90.008-51.969-122.922 32.938c-16.656 4.461-33.774-5.422-38.234-22.078s5.422-33.774 22.078-38.242l62.602-16.773-49.211-28.414C65.6 228.032 60.483 208.93 69.108 194c8.625-14.938 27.719-20.047 42.649-11.422l49.219 28.414-16.781-62.61c-4.461-16.656 5.422-33.774 22.078-38.234s33.774 5.422 38.242 22.078l32.93 122.914 90.016 51.969 153.828-88.813V114.358l-89.977-89.985c-12.195-12.195-12.195-31.961 0-44.149 12.188-12.195 31.961-12.195 44.149 0l45.836 45.828v-56.828c0-17.242 13.977-31.227 31.219-31.227s31.219 13.984 31.219 31.227v56.828l45.828-45.828c12.195-12.195 31.961-12.195 44.156 0 12.195 12.188 12.195 31.953 0 44.149l-89.985 89.985v103.938l153.836 88.813 90.016-51.969 32.93-122.914c3.742-13.953 16.352-23.148 30.141-23.148 20.531 0 35.484 19.492 30.172 39.305l-16.773 62.61 49.219-28.414c14.938-8.625 34.031-3.508 42.649 11.422s3.508 34.031-11.43 42.649l-49.211 28.414 62.602 16.773c16.656 4.469 26.539 21.586 22.078 38.242-4.469 16.656-21.578 26.539-38.242 22.078zm-275.376 55.078l-91.391 52.766 91.391 52.766zm-31.219 159.61l-91.391-52.766v105.524zm-153.828 52.766V504.078l-91.399 52.766zM358.679 502.765l91.391-52.766-91.391-52.766zm31.219-159.61l91.399 52.766V290.397zm153.836-52.766V395.92l91.391-52.766zm171.899 446.845c0-20.117-16.305-36.43-36.422-36.43s-36.43 16.313-36.43 36.43 16.313 36.422 36.43 36.422 36.422-16.305 36.422-36.422zm-479.61-287.235c0-20.117-16.305-36.422-36.422-36.422s-36.422 16.305-36.422 36.422 16.305 36.422 36.422 36.422c20.117 0 36.422-16.305 36.422-36.422zm625.829 0c0-20.117-16.313-36.422-36.422-36.422-20.117 0-36.43 16.305-36.43 36.422s16.313 36.422 36.43 36.422c20.109 0 36.422-16.305 36.422-36.422zm-474.04 287.235c0-20.117-16.305-36.43-36.422-36.43s-36.43 16.313-36.43 36.43 16.313 36.422 36.43 36.422 36.422-16.305 36.422-36.422zm325.04-574.47c0-20.117-16.313-36.422-36.43-36.422S640 142.647 640 162.764c0 20.117 16.305 36.422 36.422 36.422s36.43-16.305 36.43-36.422zm-327.821 0c0-20.117-16.313-36.422-36.43-36.422-20.109 0-36.422 16.305-36.422 36.422s16.313 36.422 36.422 36.422c20.117 0 36.43-16.305 36.43-36.422z"/><glyph unicode="" glyph-name="snowflake1" d="M946.97 223.498l-137.337 79.287 71.789 19.239c12.296 3.296 19.594 15.935 16.297 28.231s-15.94 19.601-28.233 16.3l-116.317-31.168-1.729 1-66.694 111.896 66.201 111.068 2.197 1.27 116.344-31.172a23.102 23.102 0 0 1 5.982-.793c10.177 0 19.492 6.793 22.249 17.093 3.299 12.296-3.999 24.935-16.297 28.231l-71.812 19.243 19.091 11.021c.009.005.016.012.028.018l118.235 68.262c11.025 6.367 14.804 20.463 8.437 31.488-6.364 11.023-20.465 14.806-31.488 8.437L786.576 633.16l19.234 71.786c3.299 12.296-3.999 24.935-16.297 28.231-12.291 3.296-24.937-4.002-28.231-16.3L730.114 600.56l-1.365-.788-130.371-.263-63.336 111.757v1.883l85.17 85.17c9.002 9.002 9.002 23.598 0 32.601-9.002 8.999-23.598 8.999-32.599 0l-52.571-52.571v158.6c0 12.729-10.32 23.051-23.051 23.051s-23.051-10.322-23.051-23.051V778.365l-52.552 52.552c-9.002 8.999-23.598 8.999-32.601 0-9.002-9.002-9.002-23.598 0-32.601l85.151-85.151v-1.934l-63.313-111.727-130.41.263-1.323.763-31.172 116.342c-3.296 12.298-15.938 19.598-28.231 16.3-12.298-3.296-19.596-15.935-16.3-28.231l19.241-71.809-19.089 11.021-.028.014-118.232 68.264c-11.028 6.364-25.124 2.591-31.488-8.437-6.367-11.025-2.589-25.119 8.437-31.488l137.337-79.289-71.786-19.236c-12.298-3.296-19.596-15.935-16.3-28.231 2.759-10.299 12.072-17.093 22.251-17.093 1.973 0 3.983.256 5.98.793l116.319 31.168 2.241-1.295 66.183-111.036-66.713-111.928-1.685-.975-116.342 31.175c-12.3 3.301-24.937-3.999-28.233-16.297-3.296-12.296 4.002-24.935 16.3-28.231l71.812-19.246-137.351-79.296c-11.025-6.367-14.804-20.463-8.437-31.488 4.269-7.395 12.017-11.53 19.983-11.53 3.909 0 7.874 1 11.505 3.093l118.244 68.266c.005.005.012.007.016.009l19.075 11.012-19.234-71.789c-3.296-12.296 4.002-24.932 16.3-28.229a23.116 23.116 0 0 1 5.982-.795c10.177.002 19.492 6.793 22.251 17.093l31.168 116.317 2.351 1.358 129.387.334 63.331-111.831v-2.45l-85.17-85.17c-9.002-8.999-9.002-23.595 0-32.601 9.002-8.999 23.598-8.999 32.601 0l52.571 52.568V-40.941c0-12.727 10.32-23.051 23.051-23.051s23.051 10.325 23.051 23.051v158.586l52.55-52.555c4.502-4.497 10.401-6.749 16.3-6.749s11.798 2.252 16.297 6.749c9.002 9.004 9.004 23.6 0 32.606l-85.149 85.149v2.499l63.315 111.799 129.421-.334 2.307-1.332 31.172-116.342c2.759-10.299 12.07-17.093 22.249-17.093 1.973 0 3.986.254 5.984.795 12.296 3.296 19.594 15.933 16.297 28.229l-19.241 71.809 19.091-11.021c.005-.005.012-.005.016-.009l118.244-68.266a22.978 22.978 0 0 1 11.505-3.093c7.967 0 15.714 4.135 19.983 11.53 6.362 11.023 2.586 25.121-8.439 31.486zM638.108 436.48l31.502-52.847-111.508 64.378 111.013 64.096-31.006-52.02a23.047 23.047 0 0 1 0-23.607zM385.89 460.085l-30.988 51.99 110.994-64.085-111.527-64.389 31.518 52.877a23.052 23.052 0 0 1 .002 23.607zm126.118-15.295c-.648 0-1.282-.046-1.916-.097-.27.569-.546 1.139-.867 1.694-.33.572-.692 1.109-1.06 1.641.357.516.733 1.012 1.053 1.567.325.56.604 1.134.876 1.71a23.298 23.298 0 0 1 1.899-.097c.648 0 1.282.046 1.916.097.27-.569.546-1.139.867-1.694.325-.558.703-1.063 1.06-1.586a25.614 25.614 0 0 1-1.053-1.627 22.537 22.537 0 0 1-.874-1.708c-.632.055-1.261.099-1.902.099zm72.95 108.585h.048l63.612.129-113.576-65.572v129.82l29.861-52.691a23.042 23.042 0 0 1 20.055-11.687zm-145.963 0h.046a23.057 23.057 0 0 1 20.055 11.685l29.84 52.661V487.922l-113.592 65.581 63.651-.127zm.047-210.103h-.06l-62.538-.159 112.511 64.959V278.863l-29.856 52.721a23.041 23.041 0 0 1-20.057 11.689zm145.974 0h-.06a23.06 23.06 0 0 1-20.059-11.689l-29.838-52.688v129.189l112.525-64.97-62.568.159z"/><glyph unicode="" glyph-name="user" d="M874.04 298.04c-55.766 55.764-122.142 97.046-194.562 122.036C757.042 473.498 808 562.904 808 664c0 163.214-132.786 296-296 296S216 827.214 216 664c0-101.096 50.958-190.502 128.524-243.924-72.42-24.99-138.796-66.272-194.562-122.036C53.258 201.334 0 72.76 0-64h80c0 238.206 193.794 432 432 432S944 174.206 944-64h80c0 136.76-53.258 265.334-149.96 362.04zM512 448c-119.102 0-216 96.896-216 216s96.898 216 216 216 216-96.896 216-216-96.898-216-216-216z"/><glyph unicode="" glyph-name="calendar" d="M812 540c0-22.091-17.909-40-40-40s-40 17.909-40 40 17.909 40 40 40 40-17.909 40-40zm52 340h-52v40c0 22.092-17.908 40-40 40s-40-17.908-40-40v-40H550v40c0 22.092-17.908 40-40 40s-40-17.908-40-40v-40H290v40c0 22.092-17.908 40-40 40s-40-17.908-40-40v-40h-50C71.776 880 0 808.224 0 720V96C0 7.776 71.776-64 160-64h306c22.092 0 40 17.908 40 40s-17.908 40-40 40H160c-44.112 0-80 35.888-80 80v624c0 44.112 35.888 80 80 80h50v-40c0-22.092 17.908-40 40-40s40 17.908 40 40v40h180v-40c0-22.092 17.908-40 40-40s40 17.908 40 40v40h182v-40c0-22.092 17.908-40 40-40s40 17.908 40 40v40h52c44.112 0 80-35.888 80-80V492c0-22.092 17.908-40 40-40s40 17.908 40 40v228c0 88.224-71.776 160-160 160zm-82-460c-133.44 0-242-108.56-242-242S648.56-64 782-64s242 108.56 242 242-108.56 242-242 242zm0-404c-89.326 0-162 72.672-162 162s72.674 162 162 162 162-72.672 162-162S871.326 16 782 16zm58 202h-18v42c0 22.092-17.908 40-40 40s-40-17.908-40-40v-82c0-22.092 17.908-40 40-40h58c22.092 0 40 17.908 40 40s-17.908 40-40 40zM638 540c0-22.091-17.909-40-40-40s-40 17.909-40 40 17.909 40 40 40 40-17.909 40-40zM464 366c0-22.091-17.909-40-40-40s-40 17.909-40 40 17.909 40 40 40 40-17.909 40-40zM290 540c0-22.091-17.909-40-40-40s-40 17.909-40 40 17.909 40 40 40 40-17.909 40-40zm0-174c0-22.091-17.909-40-40-40s-40 17.909-40 40 17.909 40 40 40 40-17.909 40-40zm0-174c0-22.091-17.909-40-40-40s-40 17.909-40 40 17.909 40 40 40 40-17.909 40-40zm174 0c0-22.091-17.909-40-40-40s-40 17.909-40 40 17.909 40 40 40 40-17.909 40-40zm0 348c0-22.091-17.909-40-40-40s-40 17.909-40 40 17.909 40 40 40 40-17.909 40-40z"/><glyph unicode="" glyph-name="envelope" d="M98.284 602.281c12.953-9.141 52-36.289 117.142-81.429 65.144-45.141 115.048-79.898 149.715-104.274 3.809-2.672 11.901-8.48 24.28-17.433 12.381-8.959 22.669-16.198 30.855-21.72 8.192-5.52 18.095-11.713 29.72-18.568 11.62-6.849 22.574-12.001 32.86-15.411 10.288-3.439 19.81-5.142 28.571-5.142h1.151c8.76 0 18.287 1.705 28.575 5.142 10.282 3.41 21.246 8.568 32.856 15.411 11.616 6.863 21.52 13.05 29.712 18.568 8.192 5.522 18.471 12.761 30.857 21.72 12.377 8.961 20.479 14.761 24.288 17.433 35.042 24.376 124.193 86.283 267.425 185.716 27.808 19.42 51.041 42.853 69.705 70.283 18.678 27.418 28.006 56.181 28.006 86.273 0 25.146-9.053 46.672-27.15 64.575-18.095 17.907-39.527 26.856-64.281 26.856H91.427c-29.331 0-51.904-9.903-67.713-29.71C7.906 800.761.003 775.998.003 746.287c0-24 10.48-50.007 31.429-78.005 20.947-28 43.24-50.003 66.855-66zm868.566-61.137C841.911 456.58 747.041 390.86 682.288 343.998c-21.714-15.994-39.329-28.479-52.857-37.425-13.528-8.953-31.519-18.095-53.999-27.424-22.472-9.343-43.416-14-62.848-14h-1.157c-19.428 0-40.383 4.657-62.856 14-22.472 9.329-40.476 18.471-53.999 27.424-13.52 8.947-31.141 21.432-52.853 37.425C290.287 381.71 195.622 447.434 57.72 541.144 36 555.611 16.762 572.193 0 590.856V137.155c0-25.158 8.949-46.672 26.856-64.577 17.903-17.911 39.431-26.864 64.575-26.864h841.146c25.138 0 46.664 8.953 64.569 26.864 17.911 17.911 26.856 39.417 26.856 64.577v453.701c-16.384-18.277-35.426-34.859-57.152-49.712z"/><glyph unicode="" glyph-name="phone" d="M1001.042 150.739L842.901 308.897c-31.499 31.372-83.661 30.419-116.257-2.189l-79.672-79.654a2304.325 2304.325 0 0 0-15.721 8.746c-50.312 27.877-119.173 66.086-191.634 138.601-72.676 72.667-110.921 141.634-138.883 191.978-2.951 5.334-5.778 10.476-8.57 15.36l79.76 79.713c32.646 32.655 33.546 84.803 2.121 116.266L215.904 935.894c-31.425 31.419-83.611 30.466-116.257-2.189L55.078 888.88l1.218-1.209c-14.945-19.069-27.433-41.063-36.726-64.78-8.567-22.576-13.9-44.119-16.339-65.707-20.881-173.112 58.226-331.323 272.912-546.013C572.905-85.57 812.056-63.153 822.373-62.059c22.47 2.686 44.005 8.055 65.889 16.554 23.511 9.185 45.49 21.655 64.548 36.568l.974-.865 45.152 44.213c32.578 32.649 33.517 84.814 2.106 116.328z"/><glyph unicode="" glyph-name="delete" d="M904.105 927.478H651.543C649.741 945.729 634.332 960 615.598 960H408.401c-18.741 0-34.142-14.271-35.955-32.522H119.894c-19.961 0-36.139-16.178-36.139-36.144v-68.661c0-19.968 16.178-36.141 36.139-36.141h784.212c19.961 0 36.139 16.175 36.139 36.141v68.66c0 19.968-16.178 36.146-36.139 36.146zM159.523-27.861c0-19.95 16.171-36.139 36.139-36.139h632.681c19.968 0 36.139 16.187 36.139 36.139v744.968h-704.96V-27.861z"/><glyph unicode="" glyph-name="discount" d="M1021.711 426.109a29.99 29.99 0 0 1-27.719 18.516H863.328v405.039C863.328 910.508 813.836 960 753 960H270.992c-60.836 0-110.328-49.492-110.328-110.336V444.625H30a30.014 30.014 0 0 1-27.719-18.523 30.01 30.01 0 0 1 6.508-32.695L433.977-31.788c20.773-20.773 48.484-32.211 78.016-32.211 29.539 0 57.25 11.445 78.016 32.219l425.203 425.195a29.995 29.995 0 0 1 6.5 32.695zM330.227 693.414c25.094 25.102 65.781 25.102 90.883 0 25.094-25.094 25.094-65.781 0-90.883-25.102-25.102-65.789-25.094-90.883 0-25.102 25.102-25.102 65.789 0 90.883zm113.601-340.82c-25.094-25.102-65.789-25.102-90.883 0-25.102 25.094-25.102 65.789 0 90.883l227.219 227.219c25.094 25.102 65.789 25.094 90.883 0s25.102-65.789 0-90.891zm249.945-22.719c-25.102-25.102-65.789-25.102-90.883 0-25.102 25.094-25.102 65.789 0 90.883 25.094 25.094 65.781 25.094 90.883 0s25.094-65.789 0-90.883z"/><glyph unicode="" glyph-name="revert" d="M518.121 959.876h2.026c1.075.248 1.448.083 2.233.083 132.56 0 261.398-52.569 356.568-144.885l104.89 106.255c5.046 5.087 12.822 6.618 19.067 3.888 6.576-2.688 10.919-9.058 10.919-16.213v-345.4c0-9.678-7.858-17.537-17.454-17.537H654.526a17.467 17.467 0 0 0-17.537 17.537c0 6.576 3.516 12.243 8.768 15.179l103.36 104.766c-61.296 59.228-141.37 91.53-229.095 91.53-179.173-.91-325.01-147.739-325.01-329.642 1.406-179.008 148.07-324.638 330.014-324.638l-.372-184.798h-2.482c-280.465.083-510.18 228.227-511.959 512.041 0 279.968 227.606 509.394 507.905 511.835z"/><glyph unicode="" glyph-name="move" d="M450.717 117.177h-79.196c-16.133 0-24.304-19.485-13.199-31.008L498.906-58.396c7.123-7.333 19.066-7.333 26.189 0L665.679 86.169c11.314 11.523 3.143 31.008-13.199 31.008h-79.196v269.645h269.645v-79.196c0-16.133 19.485-24.304 31.008-13.199l144.565 140.584c7.333 7.123 7.333 19.066 0 26.189L873.937 601.784c-11.523 11.314-31.008 3.143-31.008-13.199v-79.196H573.075v269.435h79.196c16.133 0 24.304 19.485 13.199 31.008L524.886 954.397c-7.123 7.333-19.066 7.333-26.189 0L358.113 809.832c-11.314-11.523-3.143-31.008 13.199-31.008h79.196V509.179H181.073v79.196c0 16.133-19.485 24.304-31.008 13.199L5.5 460.99c-7.333-7.123-7.333-19.066 0-26.189l144.565-140.584c11.523-11.314 31.008-3.143 31.008 13.199v79.196h269.645V117.177z"/><glyph unicode="" glyph-name="edit" d="M636.75 787.445l208.305-208.303L317.778 51.865 109.591 260.168 636.75 787.445zm366.367 50.238l-92.896 92.896c-35.901 35.901-94.197 35.901-130.22 0l-88.985-88.985 208.305-208.305 103.796 103.796c27.845 27.847 27.845 72.753 0 100.598zM.581-32.618C-3.21-49.679 12.194-64.966 29.257-60.817l232.121 56.28L53.191 203.766.581-32.618z"/><glyph unicode="" glyph-name="rubber" d="M992.711 667.307l-281.6 281.316c-15.076 15.076-39.822 15.076-54.898 0L219.306 511.432l336.213-336.213L992.71 612.41c15.076 15.076 15.076 39.538 0 54.898zm-843.093-225.28L31.289 323.698c-15.076-15.076-15.076-39.822 0-54.898l281.6-281.6c15.076-15.076 39.822-15.076 54.898 0l118.329 118.329-336.498 336.498zM426.951-64h545.28v79.929H519.964z"/></font>
</defs>
</svg>
